<?xml version="1.0" encoding="UTF-8"?><svg
  id="a"
  xmlns="http://www.w3.org/2000/svg"
  viewBox="0 0 10621.63 6637.96"
>
  <defs><style>
    .b {
      fill: #f47a21;
    }
    .c {
      fill: #459495;
    }
    .d {
      fill: #840d30;
    }
    </style></defs><path
    class="b"
    d="M1994.17,49.54c-346.95-163.61-799.59,99.62-884.42,473.71-18.45,81.35-22.71,167.19-1.27,247.8,33.78,126.98,128.2,230.11,235,306.66,255.05,182.79,577.73,234.76,872.87,341.33,463.76,167.45,863.06,472.2,1254.19,772.41,518.6,398.05,1068.55,841.39,1238.82,1472.58,134.04,496.87,9.06,1042.95,183.11,1527.25,122.25,340.18,384.14,617.1,687.23,814.09,303.09,196.98,647.22,321.11,992.5,428.1,163.37,50.62,333.74,98.32,503.25,75.43,151.34-20.43,289.03-95.45,422.79-169.13,178.75-98.46,378.3-226.42,401.9-429.12,24.12-207.15-160.91-389.19-361.06-447.77-200.15-58.59-413.69-28.94-622.13-22.24-310.55,9.98-633.15-36.45-895.33-203.19-396.48-252.15-585.4-729.11-689.92-1187.21-104.51-458.1-153.09-938.92-373.5-1353.88-220.6-415.32-596.46-728.49-999.13-971.43-402.67-242.94-838.49-425.57-1251.86-649.81-220.01-119.35-454.87-280.15-496.99-526.87-27.24-159.56,31.38-382.01-216.08-498.71Z"
  /><path
    class="c"
    d="M28.03,5942.94c147.3-640.98,350.39-1264.58,606.89-1858.97,74.52-172.68,156.46-347.13,287.22-472.31,47.9-45.86,114.53-85.83,174.44-56.52,27.11,13.27,47.79,38.88,64.97,65.56,115.9,179.96,104.02,420.25,52.52,627.25-51.49,207-137.55,404.38-155.58,619.28,92.44,39.04,197.87,7.72,275.14-55.11,77.27-62.83,131.43-153.17,181.42-243.42,289.79-523.06,505.48-1122.8,943.08-1501.37,78.28-67.72,173.92-129.86,274.26-109.02,53.54,11.12,101.95,45.3,141.77,87.1,174.68,183.37,180.67,496.1,78.56,727.1-102.11,231-288.59,399.29-469.84,560.47-179.41,159.55-358.82,319.11-538.22,478.66-65.15,57.94-132.66,119.27-164.78,204.7-32.12,85.44-15.6,202.16,58.95,250.81,26.58,17.35,57.42,24.37,87.76,28.55,220.2,30.31,434.69-76.32,606.7-221.66,172-145.34,313-329.34,475.38-487.26,162.38-157.92,356.37-293.45,576.1-311.46,29.54-2.42,60.21-2.51,88.2,9.53,52.65,22.66,84.45,83.06,101.01,142.19,67.09,239.54-54.46,496.53-233.47,641.35-179.01,144.82-404.78,201.94-623.9,255.83-170.4,41.91-340.79,83.81-511.19,125.72-176.48,43.4-353.81,87.09-520.9,160.53-269.81,118.58-506.16,312.2-711.05,535.78-153.67,167.69-298.53,358.64-501.34,446.4-163.3,70.67-362.29,62.02-511.59-49.69-149.3-111.71-196.93-319.73-132.52-600.03Z"
  /><path
    class="d"
    d="M10048.79,621.78c-443.63,343.16-924.59,664.35-1447.46,728.51-247.48,30.37-495.14,1.61-743.01,18.48-377.39,25.68-753.51,159.13-1084.62,384.82-131.41,89.58-263.04,203.82-316.73,366.54-86.57,262.37,81.27,556.94,309.77,633.2,228.5,76.26,485.83-23.07,687.44-186.4,210.87-170.83,384.52-412.88,623.22-520.85,131.73-59.58,277.31-73.25,411.7-38.64,19.29,4.97,39.85,12.05,50.88,30.48,10.01,16.72,9.85,38.94,9.34,59.7-3.14,127.09-9.28,264.21-78.57,367.46-70.21,104.62-187.27,148.09-294.8,192.66-173.57,71.95-341.98,162.35-502.27,269.62-162.72,108.89-321.05,239.79-425.28,419.73-104.23,179.94-145.21,417.72-64.37,602.61,91.07,208.27,322.1,302,527.21,250.99,205.1-51.01,380.41-224.32,493.13-430.29,85.79-156.76,139.75-331.99,215.36-495.07,114.53-247.03,276.66-462.04,437.23-674.49,96.57-127.77,233.85-269.8,367.01-214.23,100.86,42.09,140.34,182.88,133.43,307.73-14.76,266.76-177.86,498.55-346.33,692.54-168.48,194-356.38,381.56-448.02,631.84-73.63,201.1-76.82,425.1-42.16,633.53,21.67,130.29,59.4,260.34,135.57,357.71,76.18,97.37,197.1,156.28,311.79,122.12,179.28-53.4,264.7-290.33,306.02-496.5,71.68-357.66,98.18-722.84,164.17-1081.61,65.99-358.77,176.56-720.47,389.35-1002.21,86.29-114.25,187.4-212.7,277.99-322.56,139.46-169.12,252.93-364.08,350.02-567.2,99.74-208.65,184.95-440.44,162.08-670.38-22.87-229.95-244.98-620.54-569.09-369.83Z"
  />
</svg>
