<?xml version="1.0" encoding="UTF-8"?><svg id="a" xmlns="http://www.w3.org/2000/svg" viewBox="0 0 2000 1474.87"><defs><style>.b{fill:#2c2d30;}.c{fill:#f15a29;}.d{fill:#3b3c40;}.e{fill:#00a79d;}.f{fill:#ef4136;}.g{fill:#256660;}</style></defs><path class="d" d="M1801.99,1224.27c0,138.45-112.15,250.61-250.6,250.61s-250.07-112.16-250.07-250.61c0-26.29,3.76-51.51,11.27-75.13,32.2-101.96,127.18-175.48,238.8-175.48s207.14,73.52,239.34,175.48c7.51,23.61,11.27,48.83,11.27,75.13Z"/><circle class="d" cx="321.66" cy="1224.25" r="250.4"/><circle class="e" cx="321.66" cy="1224.25" r="85.06"/><circle class="e" cx="1551.61" cy="1224.25" r="85.06"/><path class="g" d="M1301.32,1224.27c0,26.3,3.76,51.52,11.27,75.13H560.77c6.44-20.39,10.2-42.39,10.73-65.47h.54v-9.66c0-10.19-.54-20.39-1.61-30.05-.54-5.36-1.61-10.2-2.15-15.02-2.15-10.2-4.83-20.39-7.51-30.05h751.81c-7.51,23.61-11.27,48.83-11.27,75.13Z"/><path class="g" d="M2000,1219.44v9.66c0,38.64-31.12,70.3-70.3,70.3h-138.98c7.51-23.61,11.27-48.83,11.27-75.13s-3.76-51.51-11.27-75.13h138.98c39.18,0,70.3,31.66,70.3,70.3Z"/><path class="c" d="M1907.7,1069.19v79.96h-116.98c-32.2-101.96-127.18-175.48-239.34-175.48s-206.6,73.52-238.8,175.48h-68.15l102.49-296.22,21.47-61.18,16.64-48.29c17.17-48.83,63.32-82.11,115.37-82.11,2.15,0,3.76,0,5.91,.54,31.12,0,61.71,3.76,90.69,11.27,178.16,43.47,310.71,203.92,310.71,396.03Z"/><path class="e" d="M1021.73,1149.14h-425.54l-22-198.55h248.99c110.01,0,198.55,88.54,198.55,198.55Z"/><path class="c" d="M596.19,1149.14h-35.42c-3.22-10.73-7.51-20.93-12.34-30.59-39.71-85.32-126.11-144.89-226.99-144.89-137.91,0-250.07,112.16-250.07,250.6v4.83c-41.32-12.34-71.37-50.44-71.37-95.52v-384.23c0-75.66,61.71-137.38,137.38-137.38H413.74c69.76,0,128.79,52.59,136.3,122.35l14.49,127.71,9.66,88.54,22,198.55Z"/><polygon class="b" points="832.3 862.05 832.3 950.59 574.19 950.59 564.53 862.05 832.3 862.05"/><rect class="f" x="276.24" y="76.51" width="90.85" height="535.56"/><path class="f" d="M1596.99,76.43V673.16c-28.98-7.51-59.56-11.27-90.69-11.27V76.43h90.69Z"/><path class="c" d="M73.66,0H1718.46C1753.21,0,1781.42,28.21,1781.42,62.96h0c0,7.48-6.07,13.55-13.55,13.55H73.66c-1.32,0-2.39-1.07-2.39-2.39V2.39C71.27,1.07,72.34,0,73.66,0Z"/><polygon class="g" points="1368.39 791.75 1346.93 852.92 1166.62 789.6 1188.09 728.96 1368.39 791.75"/><path class="b" d="M1088.28,819.08l57.17-162.62c5.89-16.76,24.25-25.57,41.01-19.68h0c16.76,5.89,25.57,24.25,19.68,41.01l-57.17,162.62c-5.89,16.76-24.25,25.57-41.01,19.68h0c-16.76-5.89-25.57-24.25-19.68-41.01Z"/></svg>