<?xml version="1.0" encoding="UTF-8"?><svg id="a" xmlns="http://www.w3.org/2000/svg" viewBox="0 0 6556.04 4608.29"><defs><style>.b{fill:#f27536;}.c{fill:#efccbd;}</style></defs><path class="c" d="M627.29,9.2C313.92-56.9-3.11,244.12,.02,564.37c.68,69.64,13.75,140.2,46.7,201.55,51.9,96.65,148.47,162.25,249.98,203.87,242.41,99.38,514.56,79.46,774.86,109.19,409.01,46.72,792.09,217.4,1167.67,385.96,497.97,223.49,1030.14,477.75,1290.03,957.73,204.58,377.84,208.22,845.55,442.89,1205.48,164.83,252.82,430.92,427.35,715.09,529.01,284.17,101.66,587.65,136.22,888.76,156.64,142.48,9.66,290.07,15.59,423.36-35.64,119.01-45.74,216.42-133.21,310.9-218.83,126.25-114.41,263.72-256.8,243.86-426.02-20.3-172.93-205.67-285.19-379.56-294.23-173.89-9.05-341.65,56.16-509.7,101.75-250.37,67.92-521.39,92.33-766.5,7.36-370.66-128.49-616-479.59-789.14-831.62-173.13-352.03-305.2-733.29-564.18-1027.96-259.2-294.92-624.87-476.95-998.78-596.76-373.91-119.81-763.15-184.25-1142.16-286.81-201.72-54.59-423.49-139.99-505.23-332.32-52.86-124.38-48.08-316.39-271.59-363.53Z"/><path class="b" d="M891.47,4028c122.99-535.17,292.55-1055.82,506.71-1552.08,62.21-144.17,130.63-289.83,239.81-394.34,39.99-38.29,95.62-71.66,145.64-47.19,22.64,11.08,39.9,32.46,54.25,54.74,96.77,150.26,86.85,350.87,43.85,523.7-42.99,172.83-114.84,337.62-129.9,517.04,77.18,32.59,165.2,6.45,229.72-46.01,64.51-52.46,109.73-127.89,151.47-203.23,241.95-436.71,422.03-937.45,787.39-1253.52,65.36-56.54,145.21-108.42,228.99-91.03,44.7,9.28,85.12,37.82,118.36,72.72,145.85,153.1,150.84,414.2,65.59,607.07-85.25,192.87-240.95,333.37-392.27,467.95-149.79,133.22-299.58,266.43-449.37,399.64-54.4,48.38-110.76,99.58-137.58,170.91-26.82,71.33-13.02,168.79,49.22,209.4,22.19,14.48,47.94,20.35,73.27,23.84,183.85,25.31,362.93-63.72,506.54-185.07,143.61-121.35,261.33-274.97,396.9-406.82,135.57-131.85,297.54-245.01,481-260.05,24.66-2.02,50.27-2.1,73.64,7.96,43.96,18.92,70.51,69.35,84.34,118.72,56.02,200-45.47,414.56-194.93,535.47-149.46,120.91-337.95,168.6-520.9,213.6-142.27,34.99-284.53,69.98-426.8,104.97-147.34,36.24-295.4,72.71-434.91,134.03-225.27,99-422.6,260.66-593.67,447.33-128.3,140-249.24,299.43-418.58,372.71-136.34,59-302.48,51.79-427.14-41.48-124.66-93.27-164.42-266.95-110.64-500.97Z"/></svg>